<?xml version="1.0" encoding="UTF-8"?>
<svg id="_レイヤー_2" data-name="レイヤー 2" xmlns="http://www.w3.org/2000/svg" viewBox="0 0 44.85 80.27">
  <defs>
    <style>
      .cls-1 {
        fill: #202020;
      }
    </style>
  </defs>
  <g id="_レイヤー_1-2" data-name="レイヤー 1">
    <g>
      <path class="cls-1" d="M44.58,55.81c.02.09.06.04.04-.22l-.08-.18.04.4Z"/>
      <path class="cls-1" d="M44.56,54.06c-.07-.3-.19-.64-.22-.43.11.29.09.36.22.68.05.26.03.45,0,.41.02.09,0,.4.06.54.04-.34.02-.77-.1-1.21,0-.1.03,0,.05.01Z"/>
      <path class="cls-1" d="M36.5,29.82v.18c.02-.06.02-.12,0-.18Z"/>
      <path class="cls-1" d="M29.94,15.36c.07.1.15.11.21.09-.09-.08-.17-.14-.21-.09Z"/>
      <path class="cls-1" d="M29.38,12.59c0,.06.02.11.03.16.03-.08.03-.16-.03-.16Z"/>
      <path class="cls-1" d="M36.5,29.82l-.02-.46c-.18.05-.03.26.02.46Z"/>
      <path class="cls-1" d="M43.65,50.66c.03.08.06.15.08.21l-.07-.2h-.02Z"/>
      <path class="cls-1" d="M39.48,36.16l.05.12c.05.02.11.03.18.04l-.22-.16Z"/>
      <path class="cls-1" d="M41.33,41.21c-.03-.12-.25-.08-.35-.09.11.03.18.1.23.19.04-.01.08-.05.13-.11Z"/>
      <path class="cls-1" d="M43.66,49.42l.05.14s-.04-.1-.05-.14Z"/>
      <path class="cls-1" d="M38.17,32.52c.05-.03.09-.07.11-.11-.05.02-.08.06-.11.11Z"/>
      <path class="cls-1" d="M43.47,61.82s0,0,.01,0c0-.03,0-.04-.01,0Z"/>
      <path class="cls-1" d="M44.73,55.81v.09s.02.02.03.02l-.03-.1Z"/>
      <path class="cls-1" d="M27.21,6.96s0,.03.01.04c.17.16.09.05-.01-.04Z"/>
      <path class="cls-1" d="M3.94,40.99c.37-.41-.04.89.44.24-.11.04-.1-.8-.44-.24Z"/>
      <path class="cls-1" d="M43.63,50.53l-.06-.21c.03.1.04.16.06.21Z"/>
      <path class="cls-1" d="M4.38,41.24h0s.05-.07.05-.07c-.02.03-.03.04-.05.07Z"/>
      <path class="cls-1" d="M17.51,9.61c.1.03.18.02.27.01-.05-.02-.13-.03-.27-.01Z"/>
      <path class="cls-1" d="M24.24,4.21l-.13-.38c.05.19.09.3.13.38Z"/>
      <path class="cls-1" d="M16.19,13.92c-.09.08-.17.08-.18.26.03,0,.05,0,.08-.01-.04-.08-.04-.17.1-.24Z"/>
      <path class="cls-1" d="M14.12,18.03s.09-.02.13-.03c.01-.04.03-.1.04-.14l-.17.17Z"/>
      <path class="cls-1" d="M35.27,72.18c.13.02.24.06.34.11-.19-.14.3-.53-.34-.11Z"/>
      <path class="cls-1" d="M43.69,50.65s-.05-.06-.07-.12l.04.15s.03.01.02-.02Z"/>
      <path class="cls-1" d="M19.84,16.06l-.43.59c.14-.15.3-.37.43-.59Z"/>
      <path class="cls-1" d="M7.44,69.31l.15.08s-.09-.08-.15-.08Z"/>
      <path class="cls-1" d="M18.43,18.57c-.23.03-.39.1-.52.19.02.04.03.09.08.14l.44-.33Z"/>
      <path class="cls-1" d="M35.62,72.29h0s0,0,0,0Z"/>
      <path class="cls-1" d="M38.77,69.01c-.51.43-.02.39,0,.59-.52.61-.43.11-.75.18-.32.37-.36.86-.67,1.07-.06-.02-.13,0-.11-.1-.24.51-1.19.97-1.48,1.58-.06,0-.1-.02-.13-.04.21.11.35.26.42.38-.25.18-.31.54-.56.38.16-.1.1-.2.13-.31l-.19.27c-.47-.16.28-.35.1-.58-.44.42-.82,1.14-1.32,1.24-.31-.3.88-.65.14-.65.24-.08.46-.17.69-.26-.82-.21.39-.19-.42-.47-.42.2-.62.36-.83.5-.21.15-.41.32-.85.46-.06.31.24.28.18.59-.99,1.02-1.5-.64-2.1.29-.09.38.07,1.03-.73.92v-.6c-.85.18-.18.93-1.21.84.09-.28.61-.39.45-.42-.73-.28-.29.46-.75.58l-.25-.5c-.45.13-.9.34-1.37.57-.47.24-.98.38-1.49.52.03-.18.18-.38-.08-.53-.62.25-1.33.23-2.02.15-.69-.05-1.37-.3-1.96-.52l-.51.5c-.11-.01-.18-.25-.06-.34-.46-.22-.06.33-.31.53-.28,0-.33-.36-.14-.49-.44.16-1.09.3-1.74.33-.64-.01-1.26-.2-1.63-.57l.22-.11c-.62-.35-1.1.8-1.59.13l.15-.04c-.35-.18-.73-.32-1.11-.45-.37-.16-.74-.32-1.1-.48-.73-.29-1.32-.75-1.66-1.33-.59.48-1.15-1.02-1.76-.36-.48-.87-.19-.81-.98-1.8-.24-.23-.74.07-1.13-.14l.29-.31c-.26,0-.48-.05-.73-.08l.14-.55-.36-.2c.1.12.11.35,0,.42-.59-.31-.87-1.24-.71-1.38-.4-.29-.8-.6-1.2-.92.14-.05.34.1.54.19-.8-.39.19-.3-.51-.68,0,.12-.2.07-.27.09-.03-.41-.51-1.05-.92-1.52h.25c-.25-.48-.56-.96-.88-1.46-.33-.5-.56-1.06-.82-1.62.1.43-.24.45-.4.11l.2-.22c-.25-.17.05.39-.33,0-.15-.45.16-.38.35-.16-.11-.16-.19-.33-.28-.5.06-.05.14.06.25.07-.22-.18-.05-.98-.41-1.23l.06-.05c-.21-.58-.28-1.03-.39-1.43-.1-.41-.21-.79-.28-1.29-.19,0-.18-.4-.34-.7.01-.37.02-.77.04-1.19.03-.41.09-.82.1-1.27,0-.64-.12-.2-.18-.49.16-.03.26-.92.31-.44.15-1.07.19-1.37.41-2.75-.1.13-.17.29-.2.19.04-.25.21-.54.27-.49v.07c.16-1.59,1.51-3.32,1.64-4.6v.07s.27-1.28.27-1.28c.25-.55,0,.38.27,0,.24-1.41.9-2.03,1.17-3.17.95-.58,1.29-2.91,2.27-3.81h-.2c-.02-.36.27-.31.41-.49-.15-.03-.3.24-.31.02.96-2.47,2.79-4.74,4.37-6.99.56-.83-.94-1.07.23-1.9l.28.53c.43-2.02,2.02-3.57,2.47-5.55.06.16.21.24.12.41.57-.18.76-1.33.45-1.5.18-.25.31.08.56,0,.43-.25.02-1.16.5-1.16.08,0,.07.17.06.25-.06-.33.66-1.08.09-1.08.57-.54.48-1.34,1.03-1.72-.32-.6.86-.98.19-1.46.72.44,1.24-.81,1.1-1.41.15.26.44-.23.67.1.25-.47.35-.97-.09-1.1,1.41-.36.21-2.12,1.69-1.96.1-.4.19-.79.28-1.17.02-.08.07-.22.06-.25l-.03-.12v-.25c-.01-.36.07-.78.19-1.22.18.61.13.75.09.89-.05.14-.08.28.24.69-.07-.26-.15-.72-.13-1.19,0-.46.12-.95.28-1.02.09.1,0,.8.03,1.08.04-.29.1-.49.16-.62.02-.02.04-.12.06-.07l.05.1c.04.07.07.14.11.19.08.1.16.12.31,0-.03.13-.09.22-.14.3.05.03.03.35.21-.25-.03.03-.06.05-.09.08.08-.52.24-.92.46-1.14.21-.23.48-.28.58-.46-.77,1.23.22,1.06-.9,2.35.07-.05.24-.17.42-.46,0,.18-.11.34-.36.57.29.03.59-.39.77-.04-.18.12-.28.11-.49.24.2-.07.41-.11.59-.07.21.11.4.33.47.65-.13.03-.24.17-.33,0,.59.95,1.88,1.15,2.1,2.42-.99.12-.07.51-.75.94l.52.47.22-.41c.26.51,1.01.69,1.02,1.25l-.49-.23.64.88-.02-.68c.64.33.86-.52,1.02.26-.14-.1.26.52-.01,1h0c.35.14.73.28.75.74-.17.21-.81.32-.92.46.71-.05.79,1.11,1.57,1.11-.2-.03-.56.15-.62.22l.57-.03c-.03.31-.08.38-.38.49.29.75.75-.67.81.37-.07-.05-.12.02-.27-.08.25.95,1.14,1.5,1.32,2.39-.55.56-.52-.6-.95-.05.72,1.05,2.01,1.93,2.42,3.1l-.03-.24c.97-.29-.02,1.03.68,1.38-.13-.1-.58.06-.46.05.26.81,1.02,1.42,1.84,2.43l-.28-.04c.05.53.49,1.21.65,1.73.27.05.37.34.57.04-.17.99.35,1.61.84,2.23.5.61.96,1.22.92,2.04-.08-.16-.32-.31-.26-.19l.7,1.05c.2-.2.08-.21.16-.53.22.08.48.35.6.63-.39-.44-.39.18-.41.45.06-.07.17-.03.23-.08-.14.77.51-.1.6.83h-.14c.2.28.47.5.58.85-.18.24-.25-.28-.46-.22.23.45.84.73.79,1.24-.15-.17-.27-.45-.42-.62-.07.57.03.59.14.94v-.04s.24.82.24.82l-.03-.22c.77.37.62,1.14,1.25,1.8-.59-.66-.22-.06-.43-.05.03.22.11.54.02.48.31.31.16.65.59,1.1-.04.04.16.4,0,.36.25.46.04-.15.12-.13.46.69.54,1.81,1.13,2.83.41.92.58,1.06.89,1.94.04.31-.19-.21-.19-.21.1.5.23.85.38,1.31-.05-.09-.04.01-.04.16.11.37.16.22.25.72-.05-.08-.12-.17-.2-.34.14.43.31.84.42,1.3-.02.13-.12-.26-.18-.41.13.5.32,1.31.41,1.46l-.05-.33c.04.19-.03.11-.07-.03-.14-.43-.11-.64-.09-.67l.08.32c.08-.37-.3-1.3-.48-1.94l.18.24-.26-.64c-.01-.15.03-.26.13.05-.06-.48-.16-.4-.2-.81,0-.05.01-.03.03.01l-.17-.44c.05.08.07-.1.13.18-.13-.84-.49-1.27-.47-1.61l.03.06c-.4-1.1-.14-.07-.56-.86l.13-.67-.17-.06c-.03-.12-.1-.35-.03-.32-.24-.39-.04.09-.21-.12-.04-.6-.61-1.48-.39-1.7-.2-.15.09.56-.21.01.24-.28-.3-.65-.34-1.2.23.09.3.6.28.04-.4-.19-.28-1-.48-1.4-.27.08-.44-.87-.81-1.53.11,0-.33-1.39-.45-2.1h.07c-.4.02-.6-.68-.87-1.13.24-.08.37-.03.57.19l-.17-.46c-.16-.06-.29-.17-.45-.45l.35-.02c-.24-.61-.85-1.07-.94-1.96-.34.1-.59,1-1.18.29.16-.11.44-.27.61-.09-.05-.06-.25-.18-.24-.36l.43.2c-.02-.41-.32-.08-.42-.37.25-.11.09-.29.31-.34.05.06,0,.3.14.36-.09-.34-.1-.8.05-1.02-.14.1-.35.16-.48-.06-.27-.6.23-.35.23-.78-.25-.06-.21-.54-.63-.36-.07-.18.11-.3.19-.42-.31-.23-.66-1.45-.98-.87v.09s-.02-.03-.04-.04h0s0,0,0,0c-.91-.8-.69-2.24-1.35-3.15l.16-.08c-.46-.51-.72-1.28-1.29-1.53-.08-.18.11-.57.35-.59-.34-.39-.56-.35-.59-1.15.52.31.19-.29.44.36-.13-.67.09-.94-.69-1.34.55,0,.35-.73.08-.94l-.12.58c-.22-.28-.31-.58-.41-.88l.67-.15c.16-1.59-2.31-1.54-1.53-3.09-.59-.1.02.81-.62.78-.2-.59.4-1.62.32-1.8-.03-.94-1.26-.24-1.43-1.15-.17.22-.71.62-1.23.14-.2-.59.59-1.16.94-.91.09.12.05.22-.03.26.17.14.39.32.52-.03l-.26.04c.09-.39-.33-1.14.13-1.15-.43-.3-.46.02-.42.38-.04-.88-.56-1.11-.72-1.95-.06.18-.27.43-.33.31-.28-1.21-.67-.24-1.15-.9.13-.59.9-.29.22-.86,0-.56.55-.41.82-.34-.78-.43-.37-1.38-.5-1.8l.37.25c-.22-.15-.31-.32-.4-.49l-.34.44c-.02-.12-.05-.23-.05-.31-.03-.13-.02-.24.07-.29-.48-.17-.6.66-1.33.3-.02-.57-.84-.95-.46-1.64.28.74.38.58.51.36.12-.22.25-.52.64.08-.2-.19-.36-.48-.49-.91.02-.11.13-.06.21,0-.43-2.01-.89-.03-1.62-1.34.3-.24.18-1.13,0-1.29.34.61-.17.98-.55.89-.35-1.19-.58-.57-.79-1.01l.22.65c-.22.37-.4-.05-.71-.34.04-.51.31.13.24-.24-.25.23-.37-.32-.54-1.01-.16-.66-.39-1.55-.64-1.45-.19-.56-.05-1.24-.16-1.78-.01-.03-.03-.04-.06-.03-.32,1.1-.48,1.12-.68,1.21-.19.06-.42.18-.72,1.15.32.45.28.27,0,1.81l.93-2.44c-.2.87-.36,1.69-.5,2.44.26-.46.53-1.63.71-1.79-.25,1.32-.21.98-.06,1.58-.2-.42-.38.14-.53.69-.15.57-.26,1.12-.53,1.09l-.4-1.85c-.48.29-.77,1.2-1.01,2.05-.26.88-.44,1.69-.99,2.41l.43-.37c.23.58-.46,1.02-.56,1.64-.16-.12-.31-.13-.47-.08-.15.03-.27.06-.42.08.27.12-.42.77.22,1.23l-.7.23c-.62.76.47,1.5-.08,2.26-.24-.44-.67-.19-.65-.89-.14.27-.33.49-.1.62-.29.05.06,1-.39,1.09.09.19.42.41.23.71-.08,0-.16-.09-.16-.09.16.09-.03.6.48.52-1.46.31-1.15,2.4-2.38,2.7-.19.66-.46,1.44-.7,2-.08-.08-.15-.08-.07-.17-.66.61.66.92-.09,1.62-.71.19-.04-.59-.37-.41-1.07-.39-.37,1.12-1.23,1.41v-.17c-.53.28-.13,1.28-.54,1.98,0,0-.07-.08-.14-.08.25.74-.04,1.76-.24,2.53-.25-.39-.04-.41-.46-.45-.09.34.63.19.43.87-.29.11-.67.49-1.07.37l.25-.61c-.63.07-.33.79-.55,1.06l-.19-.14c-.32.96.17,1.21-.3,2.19l.19-.03c.24.77-.47.33-.35,1.03l-.55-.06c-.04.41-.09,1.47-.29,2.14-.17-.51-.03-1.35-.04-1.91-.15.36-.46,1.24-.32,1.52.02-.16-.02-.4.11-.51.18.6.09,1.25-.22,1.95-.76-.49-.98,1.76-1.76,2.03-.22,1.39-1.06,2.5-1.54,4.02.67-.34-.15.44.37.55-.1.36-.16.49-.2.51l-.66.95c-.22.2.02-.37-.09-.38-.3.76-.31.25-.59.72.19-.05.14.36-.07.77l.4-.55c-.14,1.16-.67.8-.8,1.97l-.02-.39c-.1.59-.66,2.08-.51,2.74-.07.09-.22.18-.17-.07-.46,1.34-.56,3.11-.99,4.13l-.06-.13c-.03.27.05.48-.1.79-.03-.02-.07-.12-.1,0,0,.15.02.73-.1,1.06l-.04-.31c-.38,1.36-.1,2.17-.08,3.34-.27,0-.33,1.1-.36,1.67l-.04-.02c.06,1.65.47,2.77.96,4.2-.03.25-.03.58.02.95.07.36.19.77.31,1.2.21.87.61,1.73.78,2.51-.02-.26.31-.12.46.11.05.38.73.72.33.89l-.05-.12c-.23.45.21,1.07.47,1.6l.54-.25c.08.86.64,1.72,1.3,2.36.66.64,1.24,1.21,1.23,1.83.39.14.71.47,1.1.59l-.28.29c.65.85,1.07,1.18,2.12,1.95l-.39.09c.56.51,1.47-.53,2.02-.2l-.19.7c.52.36,1.01.81,1.55,1.16.54.36,1.11.69,1.83.59-.06.09-.17.28-.38.23.55.24,2.05,1.36,2.14.27-.18.65,1.26.42,1.97.29l-.21.46c.7-.47.75-.69,1.55-.73.17.09.1.42-.13.26.58.36.55-.4,1.25-.02l-.31.28c.63.14.61-.08.98-.42.41-.18,1.19.18,1.28.64.1-.28.44-.6.82-.51.05.17-.08.28-.15.34,1.09.27,1.55-.66,2.32-.25.03.16.09.23.15.27-.85.1-1.55.08-1.49.05.02.46.74.48.2,1.15.28-.19.65-.49,1.03-.72.38-.26.76-.46,1.11-.42.04.04.08.07.11.13l-.06.06c.16.01.3-.05.42-.15.23.03.37.06.58.02.15.36.83-.02,1.17-.11-.14-.44.32-.5-.18-.75.06.02-.05.07-.27.15-.05.03-.1.05-.13.09v-.05c-.2.08-.48.17-.81.23.23-.28.45-.54.87-.39.1-.34.21-.69.28-.85.59.5,1.57.59,1.8.87.46-.33,1.02-.61,1.51-.93.49-.31.86-.76.99-1.24.22-.22.39.04.54.09-.12.15-.3.23-.34.37.22-.23.6-.45.9-.69.3-.25.51-.52.45-.76.72-.22-.12.61.68-.02l-.04.2c1.05-.23,1.5-1.07,1.99-1.77.26-.35.5-.71.8-1.05.3-.34.69-.63,1.19-.9-.13.08-.2.12-.26.1.94-.82,1.7-1.86,2.37-2.94.37-.52.66-1.08.97-1.62l.49-.79.44-.81c.32-.61.26-.72.37-1.13.05-.03.11-.06.16-.09l.11-.73c.13-.49.33-.88.53-1.32.15-.45.3-.94.39-1.57l-.09.15c.15-.44.26-1.43.29-1.35,0-.05-.03-.16.02-.33h.04s.11-1.13.11-1.13c.08-.87.13.15.19-1.13.01-.48-.02-1.36-.05-1.18-.01.19-.04.49-.08.5v-.43c-.08-.08-.16-.41-.28.64l.02.73-.06.23.03-.62c-.06.35-.04.57-.02.82-.03.06-.05.16-.07.3l-.02.72c-.05.08-.02-.33-.13.14-.01.34.14-.31.08.25-.1.34-.13.23-.15.64-.04.05-.04-.04-.02-.2-.02.18-.05.42-.09.64-.05.21-.1.41-.09.5-.16.34-.32,1.19-.43,1.12,0,.12-.09.64-.23.95.07-.62-.49,1.16-.61.93.03.5-.7,1.46-.96,2.21,0-.05.02-.14.06-.2-.22.39-.39.44-.59.66.14.15-.22.74-.31,1.13-.5.33-.04-.42-.31-.39.18.08-.41.86-.17.8-.39.23-.29.23-.61.27.22.25-.21.32-.27.71-.54.34-.34-.08-.73.45-.32.13.01-.34.01-.34ZM25.68,76.22h0c.13-.04.24-.06.31-.08-.06.02-.15.04-.31.08ZM24.4,76.35c.16.01.35.02.56,0,.06.16.03.35-.1.34.06-.11-.26-.2-.46-.34ZM27.77,79.22c-.21.14-.31.05-.36-.04.11-.03.23-.07.39-.15,0-.02,0-.04.01-.06,0,.09,0,.18-.04.26Z"/>
      <path class="cls-1" d="M28.04,78.5s.04-.04.08-.06c-.05-.03-.1-.05-.15-.06-.02.06-.03.11-.05.16.04-.01.08-.03.12-.04Z"/>
      <path class="cls-1" d="M36.51,30.03v-.03s-.02.06-.04.08c.01-.03.03-.03.04-.05Z"/>
      <polygon class="cls-1" points="8.6 70.15 8.53 70.22 8.68 70.22 8.6 70.15"/>
      <path class="cls-1" d="M38.42,37.4s-.03.06-.03.12c.02-.01.02-.06.03-.12Z"/>
      <path class="cls-1" d="M39.75,40.35l.12.45c-.04-.2-.08-.34-.12-.45Z"/>
      <path class="cls-1" d="M40.68,42.66s.07.02.1.01h0s-.1-.01-.1-.01Z"/>
      <path class="cls-1" d="M23.03,10.27s-.01,0-.02.01c-.07.12-.03.08.02-.01Z"/>
      <path class="cls-1" d="M28.6,17.66c-.15-.06-.3-.12-.43-.21.06.21.12.36.43.21Z"/>
      <path class="cls-1" d="M19.89,15.99h0s-.04.06-.04.06l.05-.06Z"/>
      <path class="cls-1" d="M27.93,16.97c0,.24.1.38.25.49-.05-.17-.09-.38-.25-.49Z"/>
      <path class="cls-1" d="M44.17,52.81l.02.12s0,0,.01.01l-.04-.13Z"/>
      <path class="cls-1" d="M44.21,52.94l.04.13c-.01-.06-.02-.11-.04-.13Z"/>
      <path class="cls-1" d="M44.31,53.34c-.02-.09-.05-.18-.07-.27.02.09.05.21.07.27Z"/>
      <path class="cls-1" d="M43.38,49.63l-.04-.03s.03.03.04.03Z"/>
      <path class="cls-1" d="M43.06,48.68c.06.23.11.59.24.9l.03.02c-.1-.13-.15-.72-.27-.92Z"/>
      <path class="cls-1" d="M42.24,44.54l.22.82c0-.16.02-.37.15,0-.16-1.07-.05.25-.37-.81Z"/>
      <path class="cls-1" d="M41.49,42.03c.18.42.1-.05.15-.04-.16-.25-.2-.31-.15.04Z"/>
      <path class="cls-1" d="M34.43,24.48l.46-.17c-.21-.29-.17.08-.46.17Z"/>
      <polygon class="cls-1" points="30.5 22.42 30.37 22.87 30.87 22.8 30.5 22.42"/>
      <polygon class="cls-1" points="32.85 18.84 32.98 18.94 32.56 18.51 32.85 18.84"/>
      <path class="cls-1" d="M14.08,17.09l.56.17c.01-.26-.54-.6-.56-.17Z"/>
      <path class="cls-1" d="M8.81,29.78c-.26.04-.53.34-.43.65.15-.27.42-.48.43-.65Z"/>
      <polygon class="cls-1" points="3.85 69.49 3.59 69.31 3.97 69.72 3.85 69.49"/>
    </g>
  </g>
</svg>