<?xml version="1.0" encoding="UTF-8"?>
<svg id="_レイヤー_2" data-name="レイヤー 2" xmlns="http://www.w3.org/2000/svg" viewBox="0 0 234.94 74.63">
  <defs>
    <style>
      .cls-1 {
        fill: #fff;
        stroke: #000;
        stroke-miterlimit: 10;
        stroke-width: 3px;
      }
    </style>
  </defs>
  <g id="_レイヤー_1-2" data-name="レイヤー 1">
    <g id="white-logo">
      <rect class="cls-1" x="1.5" y="1.5" width="231.94" height="71.63" rx="2" ry="2"/>
      <g>
        <path d="M13.86,55.43c1.24,0,2.31-.33,3.19-.99.88-.66,1.35-1.46,1.4-2.39v-29.95c-.14-1.25-.93-2.19-2.37-2.8-.72-.29-1.46-.43-2.22-.43h-.93v-.54h20.15c2.1,0,3.94-.12,5.52-.38,1.58-.25,2.6-.45,3.08-.59v9.41h-.79v-.65c.05-1.61-.56-2.91-1.83-3.9-1.27-.99-2.98-1.51-5.13-1.59h-4.73v15.65h11.4c1.77-.04,3.23-.49,4.37-1.37,1.15-.88,1.72-1.96,1.72-3.25v-.48h.64v12.42h-.64v-.43c0-1.33-.57-2.42-1.72-3.28-1.15-.86-2.58-1.31-4.3-1.34h-11.47v15.11h13.98c3.49,0,6.42-.75,8.78-2.26s4.12-3.64,5.27-6.4h.72l-3.37,10.97H12.93v-.54h.93Z"/>
        <path d="M95.36,54.86c1.24,0,2.31-.33,3.19-.99.88-.66,1.35-1.46,1.4-2.39v-29.95c-.14-1.25-.93-2.19-2.37-2.8-.72-.29-1.46-.43-2.22-.43h-.93v-.54h27.46c1.48,0,3.11-.11,4.88-.32,1.77-.22,3.01-.43,3.73-.65v9.41h-.72v-.65c0-1.61-.63-2.91-1.9-3.9s-2.98-1.51-5.13-1.59h-12.05v15.65h9.46c1.77-.04,3.23-.49,4.37-1.37,1.15-.88,1.72-1.96,1.72-3.25v-.48h.72v12.42h-.72v-.43c0-1.79-.96-3.12-2.87-3.98-.96-.39-2.01-.61-3.16-.65h-9.54v15.11h9.39c3.49,0,6.42-.75,8.78-2.26s4.12-3.64,5.27-6.4h.72l-3.3,10.97h-37.14v-.54h.93Z"/>
        <path d="M138.83,50.4c0-2.58.74-4.79,2.22-6.62h.65c-.05.29-.07.57-.07.86,0,2.47,1.18,4.63,3.55,6.48,2.37,1.85,5.6,2.77,9.72,2.77,3.2,0,5.7-.57,7.49-1.72s2.69-2.6,2.69-4.36c0-2.11-1.91-3.96-5.74-5.54l-12.48-6.18c-2.49-1.08-4.27-2.38-5.34-3.9-1.08-1.52-1.61-3.07-1.61-4.65,0-3.37,1.42-5.97,4.27-7.8,2.84-1.83,6.49-2.74,10.93-2.74,2.63,0,5.88.18,9.75.54h4.52l-.93,7.91h-.72c0-1.86-.92-3.36-2.76-4.49-1.84-1.13-4.29-1.69-7.35-1.69-3.73,0-6.43.86-8.1,2.58-.86.83-1.29,1.76-1.29,2.8,0,1.72,1.67,3.32,5.02,4.79l13.7,6.67c4.3,1.86,6.45,4.61,6.45,8.23,0,3.84-1.73,6.77-5.2,8.79s-8.07,3.04-13.8,3.04c-3.25,0-6.25-.3-9-.89-2.75-.59-4.77-1.39-6.06-2.39-.33-.68-.5-1.51-.5-2.47Z"/>
        <path d="M204.31,19.96v31.57c.05.93.51,1.72,1.4,2.37.88.65,1.95.97,3.19.97h.86l.07.54h-21.8v-.54h.93c1.19,0,2.23-.32,3.12-.97.88-.65,1.37-1.42,1.47-2.31v-31.62h-9.68c-2.2.04-3.94.56-5.23,1.56-1.29,1-1.94,2.31-1.94,3.93v.65h-.72v-9.36c.67.21,1.88.43,3.62.65,1.74.21,3.36.32,4.84.32h28.9c2.34-.04,4.25-.18,5.74-.43,1.48-.25,2.39-.43,2.72-.54v9.36h-.72v-.65c0-1.61-.65-2.92-1.94-3.93-1.29-1-3.04-1.52-5.23-1.56h-9.61Z"/>
        <path d="M42.88,17.92c.7-.03,1.8-.05,3.3-.05s3.49.24,5.95.71c2.46.47,4.74,1.22,6.84,2.23,2.09,1.01,4.01,2.24,5.76,3.68,3.23,2.68,5.76,5.9,7.59,9.66,2.62-5.59,6.02-9.88,10.2-12.85,3.18-2.26,6.69-3.38,10.53-3.38h.52v.49c-2.18.03-4.44.89-6.77,2.58-2.33,1.68-4.37,3.72-6.12,6.11-1.75,2.39-3.22,4.87-4.42,7.46-1.2,2.58-1.91,4.83-2.13,6.72v10.25c0,.82.4,1.54,1.21,2.16.81.62,1.8.93,2.98.93h.85v.49h-19.89v-.49h.85c1.13,0,2.1-.3,2.91-.91.81-.6,1.23-1.33,1.28-2.18v-10.3c-.52-3.53-2.09-7.28-4.71-11.24-3.01-4.58-6.39-7.83-10.14-9.76-2.18-1.14-4.38-1.75-6.61-1.82v-.49Z"/>
      </g>
    </g>
  </g>
</svg>