<svg width="24" height="24" viewBox="0 0 24 24" fill="none" xmlns="http://www.w3.org/2000/svg">
<path d="M19.7144 10.6161H7.39019L10.3382 7.40652C10.461 7.2774 10.5589 7.12295 10.6263 6.95218C10.6937 6.78141 10.7291 6.59774 10.7306 6.41188C10.7321 6.22603 10.6996 6.04171 10.6349 5.86969C10.5703 5.69767 10.4748 5.54139 10.3541 5.40997C10.2334 5.27854 10.0898 5.17461 9.93185 5.10423C9.77385 5.03385 9.60456 4.99844 9.43385 5.00005C9.26314 5.00167 9.09444 5.04028 8.93759 5.11364C8.78073 5.187 8.63887 5.29363 8.52027 5.42732L3.37771 11.0262C3.25798 11.1562 3.16299 11.3107 3.09817 11.4807C3.03336 11.6508 3 11.8331 3 12.0172C3 12.2013 3.03336 12.3836 3.09817 12.5537C3.16299 12.7237 3.25798 12.8782 3.37771 13.0082L8.52027 18.6071C8.76275 18.8621 9.0875 19.0031 9.42459 18.9999C9.76169 18.9968 10.0841 18.8496 10.3225 18.59C10.5609 18.3305 10.6961 17.9794 10.699 17.6124C10.7019 17.2454 10.5724 16.8919 10.3382 16.6279L7.39019 13.4155H19.7144C20.0553 13.4155 20.3823 13.2681 20.6234 13.0056C20.8645 12.7431 21 12.387 21 12.0158C21 11.6446 20.8645 11.2885 20.6234 11.026C20.3823 10.7636 20.0553 10.6161 19.7144 10.6161Z" fill="#6B7280"/>
</svg>
