<svg width="24" height="25" viewBox="0 0 24 25" fill="none" xmlns="http://www.w3.org/2000/svg">
<path d="M11.7257 20.7286V5.91714M11.7257 20.7286L10.2683 19.2711C9.44525 18.4481 8.32949 17.9857 7.16557 17.9857H3.49621C2.89028 17.9857 2.40002 17.4945 2.40002 16.8886V5.36857C2.40002 4.76263 2.89123 4.27142 3.49717 4.27142H7.71365C8.87757 4.27142 9.99382 4.73379 10.8168 5.55681L11.7257 6.46571L12.6346 5.55681C13.4577 4.73379 14.5739 4.27142 15.7378 4.27142H20.5029C21.1088 4.27142 21.6 4.76263 21.6 5.36857V16.8886C21.6 17.4945 21.1088 17.9857 20.5029 17.9857H16.2864C15.1225 17.9857 14.0062 18.4481 13.1832 19.2711L11.7257 20.7286Z" stroke="#374151" stroke-width="2" stroke-linecap="round" stroke-linejoin="round"/>
</svg>
