<svg width="24" height="25" viewBox="0 0 24 25" fill="none" xmlns="http://www.w3.org/2000/svg">
<path d="M2.40002 2.49272C1.84774 2.49272 1.40002 2.94044 1.40002 3.49272C1.40002 4.04501 1.84774 4.49272 2.40002 4.49272V2.49272ZM4.69256 3.49272L5.65779 3.23131C5.53973 2.7954 5.14417 2.49272 4.69256 2.49272V3.49272ZM8.41793 17.2479L7.45271 17.5094C7.58298 17.9904 8.0475 18.302 8.54197 18.2402L8.41793 17.2479ZM19.8806 15.8151L20.0047 16.8074C20.4293 16.7543 20.7732 16.4368 20.8599 16.0177L19.8806 15.8151ZM21.6 7.50466L22.5793 7.70727C22.6402 7.41275 22.5654 7.10645 22.3755 6.87324C22.1856 6.64002 21.9008 6.50466 21.6 6.50466V7.50466ZM5.77913 7.50466L4.8139 7.76608L5.77913 7.50466ZM2.40002 4.49272H4.69256V2.49272H2.40002V4.49272ZM8.54197 18.2402L20.0047 16.8074L19.7566 14.8228L8.2939 16.2557L8.54197 18.2402ZM20.8599 16.0177L22.5793 7.70727L20.6208 7.30206L18.9014 15.6125L20.8599 16.0177ZM3.72733 3.75414L4.8139 7.76608L6.74435 7.24325L5.65779 3.23131L3.72733 3.75414ZM4.8139 7.76608L7.45271 17.5094L9.38316 16.9865L6.74435 7.24325L4.8139 7.76608ZM21.6 6.50466H5.77913V8.50466H21.6V6.50466ZM11 21C11 21.2761 10.7762 21.5 10.5 21.5V23.5C11.8807 23.5 13 22.3807 13 21H11ZM10.5 21.5C10.2239 21.5 10 21.2761 10 21H8.00002C8.00002 22.3807 9.11931 23.5 10.5 23.5V21.5ZM10 21C10 20.7239 10.2239 20.5 10.5 20.5V18.5C9.11931 18.5 8.00002 19.6193 8.00002 21H10ZM10.5 20.5C10.7762 20.5 11 20.7239 11 21H13C13 19.6193 11.8807 18.5 10.5 18.5V20.5ZM19 21C19 21.2761 18.7762 21.5 18.5 21.5V23.5C19.8807 23.5 21 22.3807 21 21H19ZM18.5 21.5C18.2239 21.5 18 21.2761 18 21H16C16 22.3807 17.1193 23.5 18.5 23.5V21.5ZM18 21C18 20.7239 18.2239 20.5 18.5 20.5V18.5C17.1193 18.5 16 19.6193 16 21H18ZM18.5 20.5C18.7762 20.5 19 20.7239 19 21H21C21 19.6193 19.8807 18.5 18.5 18.5V20.5Z" fill="#374151"/>
</svg>
