<svg width="24" height="25" viewBox="0 0 24 25" fill="none" xmlns="http://www.w3.org/2000/svg">
<path d="M9.34701 19.5C9.08387 19.4999 8.82666 19.4179 8.60788 19.2643C8.38911 19.1106 8.2186 18.8922 8.11791 18.6368C8.01722 18.3813 7.99087 18.1002 8.04219 17.829C8.09351 17.5578 8.2202 17.3087 8.40623 17.1131L12.7881 12.5086L8.40623 7.90405C8.27914 7.77506 8.17777 7.62077 8.10803 7.45017C8.03829 7.27958 8.00159 7.0961 8.00005 6.91043C7.99851 6.72477 8.03218 6.54064 8.09909 6.3688C8.166 6.19696 8.2648 6.04084 8.38974 5.90955C8.51468 5.77826 8.66325 5.67443 8.82678 5.60412C8.99031 5.53382 9.16553 5.49844 9.34222 5.50005C9.5189 5.50167 9.69351 5.54024 9.85586 5.61352C10.0182 5.6868 10.165 5.79333 10.2878 5.92688L15.6104 11.52C15.8599 11.7822 16 12.1378 16 12.5086C16 12.8794 15.8599 13.235 15.6104 13.4972L10.2878 19.0903C10.0383 19.3526 9.69989 19.4999 9.34701 19.5Z" fill="#374151"/>
</svg>
