<svg width="24" height="25" viewBox="0 0 24 25" fill="none" xmlns="http://www.w3.org/2000/svg">
<path d="M12.0172 16.5C11.6459 16.4999 11.2899 16.3597 11.0274 16.1101L5.4274 10.7877C5.29369 10.665 5.18703 10.5181 5.11366 10.3558C5.04029 10.1935 5.00167 10.0188 5.00005 9.84217C4.99844 9.66549 5.03386 9.49028 5.10425 9.32675C5.17465 9.16323 5.2786 9.01466 5.41005 8.88973C5.5415 8.76479 5.69781 8.66599 5.86987 8.59909C6.04192 8.53218 6.22627 8.49851 6.41217 8.50005C6.59806 8.50159 6.78176 8.53829 6.95257 8.60803C7.12337 8.67776 7.27786 8.77913 7.407 8.90622L12.0172 13.2879L16.6274 8.90622C16.8914 8.66384 17.2451 8.52972 17.6122 8.53275C17.9792 8.53578 18.3304 8.67572 18.5899 8.92243C18.8495 9.16913 18.9968 9.50287 18.9999 9.85175C19.0031 10.2006 18.862 10.5367 18.607 10.7877L13.007 16.1101C12.7445 16.3597 12.3885 16.4999 12.0172 16.5V16.5Z" fill="#374151"/>
</svg>
