<svg width="24" height="25" viewBox="0 0 24 25" fill="none" xmlns="http://www.w3.org/2000/svg">
<path d="M17.602 16.4836C17.2312 16.4836 16.8756 16.3433 16.6134 16.0938L12.0087 11.7119L7.4041 16.0938C7.27511 16.2209 7.12081 16.3222 6.95021 16.392C6.77962 16.4617 6.59613 16.4984 6.41046 16.5C6.2248 16.5015 6.04067 16.4678 5.86882 16.4009C5.69697 16.334 5.54085 16.2352 5.40956 16.1103C5.27826 15.9853 5.17444 15.8368 5.10413 15.6732C5.03382 15.5097 4.99844 15.3345 5.00005 15.1578C5.00167 14.9811 5.04024 14.8065 5.11352 14.6441C5.18681 14.4818 5.29334 14.335 5.42689 14.2122L11.0201 8.8896C11.2824 8.64014 11.638 8.5 12.0087 8.5C12.3795 8.5 12.7351 8.64014 12.9973 8.8896L18.5906 14.2122C18.7861 14.3983 18.9192 14.6354 18.9731 14.8935C19.0271 15.1516 18.9994 15.4191 18.8936 15.6622C18.7878 15.9053 18.6086 16.1131 18.3787 16.2593C18.1488 16.4055 17.8785 16.4836 17.602 16.4836Z" fill="#374151"/>
</svg>
