<svg width="24" height="25" viewBox="0 0 24 25" fill="none" xmlns="http://www.w3.org/2000/svg">
<path d="M1.40639 16.4674C1.34418 17.0161 1.73862 17.5114 2.2874 17.5736C2.83617 17.6358 3.33146 17.2414 3.39366 16.6926L1.40639 16.4674ZM3.52002 6.69916L2.87732 5.93304C2.68089 6.09782 2.55526 6.33176 2.52639 6.58653L3.52002 6.69916ZM6.40272 5.58612C6.82584 5.23117 6.88109 4.60042 6.52614 4.17731C6.17119 3.75419 5.54044 3.69894 5.11732 4.05389L6.40272 5.58612ZM20.6064 16.6926C20.6686 17.2414 21.1639 17.6358 21.7127 17.5736C22.2614 17.5114 22.6559 17.0161 22.5937 16.4674L20.6064 16.6926ZM20.48 6.69916L21.4737 6.58653C21.4448 6.33176 21.3192 6.09782 21.1227 5.93304L20.48 6.69916ZM18.8827 4.05389C18.4596 3.69894 17.8289 3.75419 17.4739 4.17731C17.119 4.60042 17.1742 5.23117 17.5973 5.58612L18.8827 4.05389ZM8.12002 16.82C8.12002 18.1234 7.06342 19.18 5.76002 19.18V21.18C8.16799 21.18 10.12 19.228 10.12 16.82H8.12002ZM5.76002 19.18C4.45663 19.18 3.40002 18.1234 3.40002 16.82H1.40002C1.40002 19.228 3.35206 21.18 5.76002 21.18V19.18ZM3.40002 16.82C3.40002 15.5166 4.45663 14.46 5.76002 14.46V12.46C3.35206 12.46 1.40002 14.412 1.40002 16.82H3.40002ZM5.76002 14.46C7.06342 14.46 8.12002 15.5166 8.12002 16.82H10.12C10.12 14.412 8.16799 12.46 5.76002 12.46V14.46ZM9.95516 16.6007C10.3647 15.8927 11.1278 15.42 12 15.42V13.42C10.385 13.42 8.9763 14.2987 8.22395 15.5993L9.95516 16.6007ZM12 15.42C12.8723 15.42 13.6354 15.8927 14.0449 16.6007L15.7761 15.5993C15.0238 14.2987 13.6151 13.42 12 13.42V15.42ZM20.6 16.82C20.6 18.1234 19.5434 19.18 18.24 19.18V21.18C20.648 21.18 22.6 19.228 22.6 16.82H20.6ZM18.24 19.18C16.9366 19.18 15.88 18.1234 15.88 16.82H13.88C13.88 19.228 15.8321 21.18 18.24 21.18V19.18ZM15.88 16.82C15.88 15.5166 16.9366 14.46 18.24 14.46V12.46C15.8321 12.46 13.88 14.412 13.88 16.82H15.88ZM18.24 14.46C19.5434 14.46 20.6 15.5166 20.6 16.82H22.6C22.6 14.412 20.648 12.46 18.24 12.46V14.46ZM3.39366 16.6926L4.51366 6.81179L2.52639 6.58653L1.40639 16.4674L3.39366 16.6926ZM4.16272 7.46527L6.40272 5.58612L5.11732 4.05389L2.87732 5.93304L4.16272 7.46527ZM22.5937 16.4674L21.4737 6.58653L19.4864 6.81179L20.6064 16.6926L22.5937 16.4674ZM21.1227 5.93304L18.8827 4.05389L17.5973 5.58612L19.8373 7.46527L21.1227 5.93304Z" fill="#374151"/>
</svg>
