<svg width="32" height="32" viewBox="0 0 32 32" fill="none" xmlns="http://www.w3.org/2000/svg">
<path d="M26.6667 8.28066H21.3333V5.47364C21.3333 4.72918 21.0524 4.0152 20.5523 3.48878C20.0522 2.96236 19.3739 2.66663 18.6667 2.66663H13.3333C12.6261 2.66663 11.9478 2.96236 11.4477 3.48878C10.9476 4.0152 10.6667 4.72918 10.6667 5.47364V8.28066H5.33333C4.97971 8.28066 4.64057 8.42853 4.39052 8.69174C4.14048 8.95495 4 9.31194 4 9.68417C4 10.0564 4.14048 10.4134 4.39052 10.6766C4.64057 10.9398 4.97971 11.0877 5.33333 11.0877H6.66667V26.5263C6.66667 27.2707 6.94762 27.9847 7.44772 28.5111C7.94781 29.0376 8.62609 29.3333 9.33333 29.3333H22.6667C23.3739 29.3333 24.0522 29.0376 24.5523 28.5111C25.0524 27.9847 25.3333 27.2707 25.3333 26.5263V11.0877H26.6667C27.0203 11.0877 27.3594 10.9398 27.6095 10.6766C27.8595 10.4134 28 10.0564 28 9.68417C28 9.31194 27.8595 8.95495 27.6095 8.69174C27.3594 8.42853 27.0203 8.28066 26.6667 8.28066ZM13.3333 5.47364H18.6667V8.28066H13.3333V5.47364ZM22.6667 26.5263H9.33333V11.0877H22.6667V26.5263Z" fill="white"/>
<path d="M13.3333 12.4912C12.9797 12.4912 12.6406 12.6391 12.3905 12.9023C12.1405 13.1655 12 13.5225 12 13.8947V23.7193C12 24.0915 12.1405 24.4485 12.3905 24.7117C12.6406 24.9749 12.9797 25.1228 13.3333 25.1228C13.687 25.1228 14.0261 24.9749 14.2761 24.7117C14.5262 24.4485 14.6667 24.0915 14.6667 23.7193V13.8947C14.6667 13.5225 14.5262 13.1655 14.2761 12.9023C14.0261 12.6391 13.687 12.4912 13.3333 12.4912Z" fill="white"/>
<path d="M18.6667 12.4912C18.313 12.4912 17.9739 12.6391 17.7239 12.9023C17.4738 13.1655 17.3333 13.5225 17.3333 13.8947V23.7193C17.3333 24.0915 17.4738 24.4485 17.7239 24.7117C17.9739 24.9749 18.313 25.1228 18.6667 25.1228C19.0203 25.1228 19.3594 24.9749 19.6095 24.7117C19.8595 24.4485 20 24.0915 20 23.7193V13.8947C20 13.5225 19.8595 13.1655 19.6095 12.9023C19.3594 12.6391 19.0203 12.4912 18.6667 12.4912Z" fill="white"/>
</svg>
